<?xml version="1.0" encoding="UTF-8"?>
<svg width="125px" height="40px" viewBox="0 0 200 48" version="1.1" xmlns="http://www.w3.org/2000/svg" xmlns:xlink="http://www.w3.org/1999/xlink">
    <!-- Generator: Sketch 50.2 (55047) - http://www.bohemiancoding.com/sketch -->
    <title>samsara logo</title>
    <desc>Created with Sketch.</desc>
    <defs></defs>
    <g id="samsara-logo" stroke="none" stroke-width="1" fill="none" fill-rule="evenodd">
        <g fill="#00263E" id="owl">
            <g>
                <g id="Page-1">
                    <path d="M25.7276319,15.4203026 C25.3266403,16.3366663 24.7107328,17.0642674 23.8980731,17.5828364 C23.1806697,18.0405959 22.380905,18.2877748 21.5211025,18.3178979 C21.1685017,18.3264845 20.8482076,18.0401736 20.8357286,17.6685607 C20.8232496,17.2972293 21.1092958,16.9854405 21.4754849,16.9727718 C22.0981866,16.9508129 22.6761025,16.7727484 23.1927328,16.4432235 C23.7784134,16.0694991 24.2239134,15.5412176 24.5160605,14.8732997 C24.6892412,14.4793056 24.6602622,14.0404082 24.4371655,13.6689361 C24.2173966,13.3023906 23.8519008,13.0782968 23.4353798,13.0539449 C22.5410521,13.001722 21.8013252,13.2749419 21.2193882,13.865722 C20.2784723,14.8209361 19.8943966,16.5254287 19.7303672,17.2531707 C19.589216,17.8768891 18.0236571,24.6271531 17.3905563,27.3552704 C17.291279,27.7848774 16.9184345,28.085546 16.4829176,28.0859683 L16.4825017,28.0859683 C16.0474008,28.0859683 15.6740017,27.7855812 15.5738924,27.3554111 L15.3451109,26.3689478 C14.6265983,23.2704845 13.3610899,17.8115754 13.235884,17.2579566 C13.0704681,16.5254287 12.6863924,14.8209361 11.7450605,13.8654405 C11.1632622,13.2749419 10.4170185,13.0028481 9.52962353,13.0539449 C9.1125479,13.0782968 8.74746807,13.3023906 8.52742185,13.6689361 C8.30460252,14.0402674 8.27576218,14.4793056 8.44797227,14.8732997 C8.74095126,15.5412176 9.18686723,16.0696399 9.77213193,16.4432235 C10.2887622,16.7727484 10.8666782,16.9508129 11.4895185,16.9727718 C11.8555689,16.9854405 12.1417538,17.2972293 12.1291361,17.6685607 C12.1166571,18.0398921 11.8020479,18.3284551 11.4437622,18.3178979 C10.5839597,18.2877748 9.78419496,18.0405959 9.06693025,17.5828364 C8.2545479,17.0648305 7.63864034,16.3372293 7.23681681,15.4203026 C6.88990084,14.6280915 6.94896807,13.7115871 7.3953,12.9682205 C7.83885882,12.2296399 8.60811933,11.7593525 9.45364034,11.7100856 C10.7226151,11.6333701 11.8347706,12.0525607 12.6825101,12.9137455 C13.8936655,14.1427425 14.337779,16.1120094 14.527321,16.9527836 C14.6446235,17.4723378 15.7512328,22.2454522 16.4825017,25.3986721 C17.2140479,22.2448891 18.3202412,17.4724786 18.4367118,16.9570065 C18.6272244,16.1120094 19.0713378,14.1427425 20.2819387,12.9137455 C21.1305101,12.0522792 22.2458546,11.6343554 23.511363,11.7100856 C24.356884,11.7593525 25.1260059,12.2296399 25.5697034,12.9685021 C26.0160353,13.7118686 26.0751025,14.6285138 25.7276319,15.4203026 M19.8002496,4.7768305 C18.9116067,4.7768305 18.0068798,4.93040235 17.1117202,5.23360469 C16.7043504,5.37169267 16.260237,5.37141114 15.8535605,5.23388622 C14.9579849,4.93040235 14.0533966,4.7768305 13.1646151,4.7768305 C8.06251008,4.7768305 3.75198908,9.95421466 3.75198908,16.0830123 C3.75198908,22.9057689 8.89291765,28.9292762 16.2541361,30.7310358 C16.4026361,30.7673525 16.5622286,30.7673525 16.7107286,30.7310358 C24.0719471,28.9292762 29.2130143,22.9057689 29.2130143,16.0830123 C29.2130143,9.95421466 24.9023546,4.7768305 19.8002496,4.7768305" id="Fill-1"></path>
                    <path d="M17.0215109,32.0393384 C16.8458345,32.0825525 16.6646118,32.1043707 16.4824185,32.1043707 C16.3003639,32.1043707 16.1190025,32.0825525 15.9433261,32.0393384 C7.98436387,30.0914674 2.42608235,23.529966 2.42608235,16.0830686 C2.42608235,9.22469912 7.34391429,3.43077537 13.1646706,3.43077537 C14.1965445,3.43077537 15.2420067,3.60785455 16.2727714,3.95680469 C16.4082378,4.00241173 16.5563218,4.00255249 16.6926202,3.95652317 C17.7229689,3.60785455 18.7682924,3.43077537 19.800305,3.43077537 C25.6210613,3.43077537 30.5388933,9.22469912 30.5388933,16.0830686 C30.5388933,23.529966 24.9804731,30.0914674 17.0215109,32.0393384 Z M29.7589563,30.1890158 C29.7589563,30.5609103 29.4619563,30.8622827 29.0960445,30.8622827 C28.7299941,30.8622827 28.4329941,30.5609103 28.4329941,30.1890158 L28.4329941,29.2499894 C28.4329941,28.878095 28.7299941,28.5768633 29.0960445,28.5768633 C29.4619563,28.5768633 29.7589563,28.878095 29.7589563,29.2499894 L29.7589563,30.1890158 Z M29.7589563,34.4574968 C29.7589563,34.8291097 29.4619563,35.1304821 29.0960445,35.1304821 C28.7299941,35.1304821 28.4329941,34.8291097 28.4329941,34.4574968 L28.4329941,33.5181889 C28.4329941,33.1462944 28.7299941,32.8452035 29.0960445,32.8452035 C29.4619563,32.8452035 29.7589563,33.1462944 29.7589563,33.5181889 L29.7589563,34.4574968 Z M25.5542294,36.5917372 C25.5542294,36.9634909 25.2570908,37.2647226 24.891179,37.2647226 C24.5251286,37.2647226 24.2282672,36.9634909 24.2282672,36.5917372 L24.2282672,35.6525701 C24.2282672,35.2806757 24.5251286,34.9795848 24.891179,34.9795848 C25.2570908,34.9795848 25.5542294,35.2806757 25.5542294,35.6525701 L25.5542294,36.5917372 Z M25.5542294,40.8599367 C25.5542294,41.2318311 25.2570908,41.532922 24.891179,41.532922 C24.5251286,41.532922 24.2282672,41.2318311 24.2282672,40.8599367 L24.2282672,39.9207695 C24.2282672,39.5490158 24.5251286,39.2477842 24.891179,39.2477842 C25.2570908,39.2477842 25.5542294,39.5490158 25.5542294,39.9207695 L25.5542294,40.8599367 Z M21.3497798,38.725837 C21.3497798,39.0977314 21.0527798,39.3988223 20.6868681,39.3988223 C20.3208176,39.3988223 20.0238176,39.0977314 20.0238176,38.725837 L20.0238176,37.7866698 C20.0238176,37.4147754 20.3208176,37.1136845 20.6868681,37.1136845 C21.0527798,37.1136845 21.3497798,37.4147754 21.3497798,37.7866698 L21.3497798,38.725837 Z M21.3497798,42.9940364 C21.3497798,43.3659308 21.0527798,43.6671625 20.6868681,43.6671625 C20.3208176,43.6671625 20.0238176,43.3659308 20.0238176,42.9940364 L20.0238176,42.0548692 C20.0238176,41.6831155 20.3208176,41.3818839 20.6868681,41.3818839 C21.0527798,41.3818839 21.3497798,41.6831155 21.3497798,42.0548692 L21.3497798,42.9940364 Z M17.1454689,36.5917372 C17.1454689,36.9634909 16.8484689,37.2647226 16.4824185,37.2647226 C16.1165067,37.2647226 15.8195067,36.9634909 15.8195067,36.5917372 L15.8195067,35.6525701 C15.8195067,35.2806757 16.1165067,34.9795848 16.4824185,34.9795848 C16.8484689,34.9795848 17.1454689,35.2806757 17.1454689,35.6525701 L17.1454689,36.5917372 Z M17.1454689,40.8599367 C17.1454689,41.2318311 16.8484689,41.532922 16.4824185,41.532922 C16.1165067,41.532922 15.8195067,41.2318311 15.8195067,40.8599367 L15.8195067,39.9207695 C15.8195067,39.5490158 16.1165067,39.2477842 16.4824185,39.2477842 C16.8484689,39.2477842 17.1454689,39.5490158 17.1454689,39.9207695 L17.1454689,40.8599367 Z M12.9410193,38.725837 C12.9410193,39.0977314 12.644158,39.3988223 12.2781076,39.3988223 C11.9120571,39.3988223 11.6151958,39.0977314 11.6151958,38.725837 L11.6151958,37.7866698 C11.6151958,37.4147754 11.9120571,37.1136845 12.2781076,37.1136845 C12.644158,37.1136845 12.9410193,37.4147754 12.9410193,37.7866698 L12.9410193,38.725837 Z M12.9410193,42.9940364 C12.9410193,43.3659308 12.644158,43.6671625 12.2781076,43.6671625 C11.9120571,43.6671625 11.6151958,43.3659308 11.6151958,42.9940364 L11.6151958,42.0548692 C11.6151958,41.6831155 11.9120571,41.3818839 12.2781076,41.3818839 C12.644158,41.3818839 12.9410193,41.6831155 12.9410193,42.0548692 L12.9410193,42.9940364 Z M8.73629244,36.5917372 C8.73629244,36.9634909 8.43929244,37.2647226 8.07324202,37.2647226 C7.70733025,37.2647226 7.41033025,36.9634909 7.41033025,36.5917372 L7.41033025,35.6525701 C7.41033025,35.2806757 7.70733025,34.9795848 8.07324202,34.9795848 C8.43929244,34.9795848 8.73629244,35.2806757 8.73629244,35.6525701 L8.73629244,36.5917372 Z M8.73629244,40.8599367 C8.73629244,41.2318311 8.43929244,41.532922 8.07324202,41.532922 C7.70733025,41.532922 7.41033025,41.2318311 7.41033025,40.8599367 L7.41033025,39.9207695 C7.41033025,39.5490158 7.70733025,39.2477842 8.07324202,39.2477842 C8.43929244,39.2477842 8.73629244,39.5490158 8.73629244,39.9207695 L8.73629244,40.8599367 Z M4.53184286,30.1890158 C4.53184286,30.5609103 4.23498151,30.8622827 3.86893109,30.8622827 C3.50288067,30.8622827 3.20601933,30.5609103 3.20601933,30.1890158 L3.20601933,29.2499894 C3.20601933,28.878095 3.50288067,28.5768633 3.86893109,28.5768633 C4.23498151,28.5768633 4.53184286,28.878095 4.53184286,29.2499894 L4.53184286,30.1890158 Z M4.53184286,34.4574968 C4.53184286,34.8291097 4.23498151,35.1304821 3.86893109,35.1304821 C3.50288067,35.1304821 3.20601933,34.8291097 3.20601933,34.4574968 L3.20601933,33.5181889 C3.20601933,33.1462944 3.50288067,32.8452035 3.86893109,32.8452035 C4.23498151,32.8452035 4.53184286,33.1462944 4.53184286,33.5181889 L4.53184286,34.4574968 Z M16.4824185,0.000112609971 C7.37941008,0.000112609971 2.77310924e-05,7.49163167 2.77310924e-05,16.7329689 L2.77310924e-05,31.1891331 C2.77310924e-05,40.4303296 7.37941008,47.9219894 16.4824185,47.9219894 C25.5854269,47.9219894 32.9648092,40.4303296 32.9648092,31.1891331 L32.9648092,16.7329689 C32.9648092,7.49163167 25.5854269,0.000112609971 16.4824185,0.000112609971 Z" id="Fill-3"></path>
                </g>
            </g>
        </g>
        <g id="Group" transform="translate(43.000000, 14.000000)" fill="#00263E">
            <path d="M9.0004,9.231 C5.9804,8.46 4.7374,7.987 4.7374,6.27 C4.7374,5.027 5.8624,4.079 7.8164,4.079 C9.8294,4.079 11.0724,4.908 12.0204,6.152 L14.4484,4.138 C12.9084,2.126 10.8354,1 7.7574,1 C3.9084,1 1.3614,3.191 1.3614,6.388 C1.3614,9.823 3.6714,11.303 7.5204,12.369 C10.8954,13.316 12.2574,14.027 12.2574,15.745 C12.2574,17.342 10.8354,18.349 8.3494,18.349 C5.7434,18.349 3.7894,17.166 2.6054,15.211 L0.0004,17.046 C1.7764,19.771 4.6184,21.428 8.3494,21.428 C12.9674,21.428 15.7504,19.238 15.7504,15.566 C15.7504,12.013 13.1454,10.296 9.0004,9.231" id="Fill-1"></path>
            <path d="M29.4862,18.231 C25.6372,18.231 23.0912,15.33 23.0912,11.244 C23.0912,7.099 25.6372,4.198 29.4862,4.198 C33.2762,4.198 35.7622,7.099 35.7622,11.244 C35.7622,15.33 33.2762,18.231 29.4862,18.231 Z M35.6442,4.79 C34.2822,2.362 31.9732,1 28.7752,1 C23.3872,1 19.3012,5.382 19.3012,11.244 C19.3012,17.046 23.3872,21.428 28.7752,21.428 C31.9732,21.428 34.2822,20.067 35.6442,17.639 L35.6442,20.955 L39.2562,20.955 L39.2562,1.474 L35.6442,1.474 L35.6442,4.79 Z" id="Fill-3"></path>
            <path d="M67.4393,0.9996 C64.3003,0.9996 62.1103,2.1846 60.5703,4.6116 C59.3863,2.1846 57.3143,0.9996 54.7083,0.9996 C52.0433,0.9996 49.9713,2.1256 48.9053,4.1386 L48.9053,1.4746 L45.2933,1.4746 L45.2933,20.9546 L48.9053,20.9546 L48.9053,9.7636 C48.9053,6.2106 50.7413,4.2576 53.9393,4.2576 C56.7213,4.2576 58.0843,5.9146 58.0843,8.9936 L58.0843,20.9546 L61.6953,20.9546 L61.6953,9.6456 C61.6953,6.2106 63.4723,4.2576 66.7293,4.2576 C69.4523,4.2576 70.8733,5.8546 70.8733,8.9356 L70.8733,20.9546 L74.4853,20.9546 L74.4853,8.5206 C74.4853,3.7826 71.5253,0.9996 67.4393,0.9996" id="Fill-5"></path>
            <path d="M87.5092,9.231 C84.4892,8.46 83.2452,7.987 83.2452,6.27 C83.2452,5.027 84.3712,4.079 86.3242,4.079 C88.3382,4.079 89.5812,4.908 90.5292,6.152 L92.9572,4.138 C91.4172,2.126 89.3442,1 86.2652,1 C82.4162,1 79.8702,3.191 79.8702,6.388 C79.8702,9.823 82.1792,11.303 86.0292,12.369 C89.4042,13.316 90.7652,14.027 90.7652,15.745 C90.7652,17.342 89.3442,18.349 86.8572,18.349 C84.2522,18.349 82.2982,17.166 81.1142,15.211 L78.5092,17.046 C80.2852,19.771 83.1272,21.428 86.8572,21.428 C91.4762,21.428 94.2592,19.238 94.2592,15.566 C94.2592,12.013 91.6542,10.296 87.5092,9.231" id="Fill-7"></path>
            <path d="M107.9945,18.231 C104.1455,18.231 101.5995,15.33 101.5995,11.244 C101.5995,7.099 104.1455,4.198 107.9945,4.198 C111.7845,4.198 114.2705,7.099 114.2705,11.244 C114.2705,15.33 111.7845,18.231 107.9945,18.231 Z M114.1525,4.79 C112.7905,2.362 110.4815,1 107.2845,1 C101.8955,1 97.8095,5.382 97.8095,11.244 C97.8095,17.046 101.8955,21.428 107.2845,21.428 C110.4815,21.428 112.7905,20.067 114.1525,17.639 L114.1525,20.955 L117.7645,20.955 L117.7645,1.474 L114.1525,1.474 L114.1525,4.79 Z" id="Fill-9"></path>
            <path d="M147.0219,18.231 C143.1729,18.231 140.6269,15.33 140.6269,11.244 C140.6269,7.099 143.1729,4.198 147.0219,4.198 C150.8119,4.198 153.2979,7.099 153.2979,11.244 C153.2979,15.33 150.8119,18.231 147.0219,18.231 Z M153.1799,1.474 L153.1799,4.79 C151.8179,2.362 149.5089,1 146.3119,1 C140.9229,1 136.8369,5.382 136.8369,11.244 C136.8369,17.046 140.9229,21.428 146.3119,21.428 C149.5089,21.428 151.8179,20.067 153.1799,17.639 L153.1799,20.955 L156.7919,20.955 L156.7919,1.474 L153.1799,1.474 Z" id="Fill-11"></path>
            <polygon id="Fill-13" points="127.4135 5.9732 127.4135 1.4742 123.8025 1.4742 123.8025 20.9542 127.4135 20.9542 127.4135 10.8082 135.4105 3.7022 133.0095 0.9992"></polygon>
        </g>
    </g>
</svg>